<svg width="988" height="350" viewBox="0 0 988 350" fill="none" xmlns="http://www.w3.org/2000/svg">
<g clip-path="url(#clip0_1_966)">
<path d="M403.5 131.53H423.55L547.22 240H548.82V146.83L529.3 131.53H580.23V349.16H556.18L420.82 223.37H419.54V341.18L439.06 348.9H403.5V131.53Z" fill="#351BAC"/>
<path d="M785.81 131.53V161.02H724.53V348.9H657.37V161.02H596.09V131.53H785.81Z" fill="#351BAC"/>
<path d="M803.5 131.53H890.18C890.18 131.53 870.66 140.39 870.66 153.08C870.66 183.33 870.66 235.38 870.66 241.2C870.66 347 957.05 332.39 957.05 232.05C957.05 200.37 955.26 168.52 955.62 136.81C955.62 136.54 955.6 131.53 955.72 131.53H987.13V269.61C987.13 280.52 985.37 290.78 981.84 300.4C978.31 310.02 972.78 318.44 965.24 325.66C957.7 332.88 948.05 338.6 936.29 342.82C924.53 347.04 910.41 349.15 893.95 349.15C879.3 349.15 866.34 347.04 855.06 342.82C843.78 338.6 834.32 332.85 826.67 325.58C819.02 318.31 813.25 309.78 809.35 300C805.45 290.22 803.5 279.77 803.5 268.65V131.53Z" fill="#351BAC"/>
<path d="M96.0602 131.78L135.04 131.53L99.8002 141.53L148.35 268.35L205.64 138.38L191.39 131.78H241.21L144.77 349.16H104.12L0.470215 131.78H96.0602Z" fill="#351BAC"/>
<path d="M157.31 348.91L260.95 131.53H301.6L398.04 348.91H348.22L362.47 342.31L305.18 212.34L256.63 339.16L291.87 349.16L252.89 348.91H157.3H157.31Z" fill="#351BAC"/>
<path d="M0 95L27.8 23H35L7.9 95H0ZM13.8 65.9H51.4V73.1H13.8V65.9ZM57.2 95L30.1 23H37.8L65.6 95H57.2Z" fill="#351BAC"/>
<path d="M196.3 96C188.97 96 182.6 94.5 177.2 91.5C171.8 88.5 167.63 84.28 164.7 78.85C161.77 73.42 160.3 67 160.3 59.6C160.3 52.2 161.75 45.68 164.65 40.05C167.55 34.42 171.58 30 176.75 26.8C181.92 23.6 187.87 22 194.6 22C199.87 22 204.65 23 208.95 25C213.25 27 216.78 29.77 219.55 33.3C222.32 36.83 224 40.93 224.6 45.6H216.4C215.73 40.67 213.45 36.73 209.55 33.8C205.65 30.87 200.77 29.4 194.9 29.4C189.63 29.4 185.03 30.65 181.1 33.15C177.17 35.65 174.12 39.13 171.95 43.6C169.78 48.07 168.7 53.33 168.7 59.4C168.7 65.47 169.82 70.68 172.05 75.05C174.28 79.42 177.52 82.77 181.75 85.1C185.98 87.43 191.07 88.6 197 88.6C201.07 88.6 204.7 88.02 207.9 86.85C211.1 85.68 214 83.87 216.6 81.4L224.8 84.4C221.13 88.27 216.92 91.17 212.15 93.1C207.38 95.03 202.1 96 196.3 96ZM216.6 84.4V61.1L219.7 64.2H196.9V57H224.8V84.4H216.6Z" fill="#351BAC"/>
<path d="M330.1 95V23H338.3V95H330.1ZM334.3 30.2V23H377.5V30.2H334.3ZM334.3 61.1V53.9H374.7V61.1H334.3ZM334.3 95V87.8H378.3V95H334.3ZM335.9 15.7L350.1 0H358.7L372.9 15.7H365.4L350.4 2H358.4L343.4 15.7H335.9Z" fill="#351BAC"/>
<path d="M483.9 95V23H492.4L533.7 83.6L532.5 83.8V23H540.3V95H531.8L490.5 34.4L491.7 34.2V95H483.9Z" fill="#351BAC"/>
<path d="M678 96C673.07 96 668.52 95.08 664.35 93.25C660.18 91.42 656.57 88.85 653.5 85.55C650.43 82.25 648.07 78.35 646.4 73.85C644.73 69.35 643.9 64.4 643.9 59C643.9 53.6 644.73 48.65 646.4 44.15C648.07 39.65 650.42 35.75 653.45 32.45C656.48 29.15 660.08 26.58 664.25 24.75C668.42 22.92 672.97 22 677.9 22C683.3 22 688.15 23.1 692.45 25.3C696.75 27.5 700.28 30.6 703.05 34.6C705.82 38.6 707.53 43.27 708.2 48.6H700C699.2 42.67 696.85 37.98 692.95 34.55C689.05 31.12 684.07 29.4 678 29.4C672.87 29.4 668.37 30.65 664.5 33.15C660.63 35.65 657.63 39.12 655.5 43.55C653.37 47.98 652.3 53.13 652.3 59C652.3 64.87 653.37 70.02 655.5 74.45C657.63 78.88 660.63 82.35 664.5 84.85C668.37 87.35 672.83 88.6 677.9 88.6C684.1 88.6 689.18 86.87 693.15 83.4C697.12 79.93 699.47 75.27 700.2 69.4H708.4C707.73 74.73 706.02 79.4 703.25 83.4C700.48 87.4 696.95 90.5 692.65 92.7C688.35 94.9 683.47 96 678 96Z" fill="#351BAC"/>
<path d="M811.6 95V23H819.8V95H811.6Z" fill="#351BAC"/>
<path d="M922 95L949.8 23H957L929.9 95H922ZM935.8 65.9H973.4V73.1H935.8V65.9ZM979.2 95L952.1 23H959.8L987.6 95H979.2Z" fill="#351BAC"/>
</g>
<defs>
<clipPath id="clip0_1_966">
<rect width="987.6" height="349.16" fill="white"/>
</clipPath>
</defs>
</svg>
